<svg width="297" height="45" viewBox="0 0 297 45" fill="none" xmlns="http://www.w3.org/2000/svg">
<g filter="url(#filter0_d)">
<path d="M29.0136 0H20.332H0V10.0435H20.863V20.087H9.97794V15.5217H0V21V31.0435V42H9.97794V30.1304H20.332H29.0267H29.9338V0H29.0136Z" transform="translate(34.562 1)" fill="white"/>
<path d="M29.0136 0H20.332H0V10.0435H20.863V20.087H9.97794V15.5217H0V21V31.0435V35.6087H9.97794V30.1304H20.332H29.0267H29.9338V0H29.0136Z" transform="translate(30.9336 1) scale(-1 1)" fill="white"/>
<path d="M-1.5806e-06 10.9625C-1.5806e-06 4.16107 4.9074 -4.21879e-07 10.9219 -4.21879e-07C15.6545 -4.21879e-07 18.3931 2.76483 19.6426 5.52966L14.5863 8.29449C14.2708 7.53225 13.7601 6.88065 13.1129 6.41474C12.4658 5.94883 11.7085 5.68755 10.9284 5.66099C10.2792 5.64794 9.63435 5.77727 9.03385 6.04098C8.43334 6.30469 7.88992 6.69716 7.4372 7.19412C6.98448 7.69107 6.63208 8.28192 6.40185 8.93012C6.17161 9.57831 6.06841 10.2701 6.09865 10.9625C6.06754 11.655 6.16988 12.3469 6.39932 12.9955C6.62875 13.644 6.98041 14.2354 7.43253 14.733C7.88464 15.2306 8.42759 15.6238 9.02779 15.8884C9.62799 16.1529 10.2727 16.2832 10.9219 16.271C12.0169 16.2698 13.0894 15.9392 14.0165 15.3172V14.5568H10.3263V8.94422H19.9986V17.6189C18.8708 18.9945 17.4756 20.0912 15.9102 20.8325C14.3449 21.5738 12.647 21.942 10.9348 21.9113C4.9074 21.9044 -1.5806e-06 17.7087 -1.5806e-06 10.9625Z" transform="translate(73.5669 9.2168)" fill="white"/>
<path d="M-2.76606e-06 12.4901V5.80084e-07H6.09865V12.262C6.09865 14.2942 7.34816 15.9185 9.82128 15.9185C12.2944 15.9185 13.5116 14.3011 13.5116 12.262V5.80084e-07H19.6102V12.4417C19.6102 17.7156 16.5156 21.5588 9.82128 21.5588C3.12701 21.5588 -2.76606e-06 17.7295 -2.76606e-06 12.4901Z" transform="translate(97.7944 9.55078)" fill="white"/>
<path d="M15.3891 21.1924L14.6769 18.711H7.55533L6.84318 21.1924H-1.18545e-06L7.32226 5.80084e-07H14.8841L22.2063 21.1924H15.3891ZM11.1032 6.28999L9.16093 13.1191H13.0907L11.1032 6.28999Z" transform="translate(118.472 9.55078)" fill="white"/>
<path d="M10.9154 21.1924L8.17685 14.5223H6.008V21.1924H-7.11271e-06V5.80084e-07H10.5917C15.2337 5.80084e-07 17.7133 3.30397 17.7133 7.27841C17.7648 8.6025 17.4543 9.91398 16.8197 11.0529C16.1852 12.1919 15.2539 13.1091 14.1395 13.6928L17.791 21.1924H10.9154ZM11.6276 7.24385C11.6276 6.09645 10.6759 5.59187 9.68533 5.59187H6.008V8.9304H9.66591C10.6694 8.9304 11.634 8.4189 11.634 7.24385H11.6276Z" transform="translate(143.3 9.55078)" fill="white"/>
<path d="M15.3632 21.1924L14.651 18.711H7.52944L6.81728 21.1924H0L7.32226 5.80084e-07H14.8776L22.1999 21.1924H15.3632ZM11.0773 6.28999L9.13501 13.1191H13.0648L11.0773 6.28999Z" transform="translate(163.682 9.55078)" fill="white"/>
<path d="M13.3367 21.1924L6.01448 10.4511V21.1924H-7.90301e-06V5.80084e-07H6.18928L13.0907 10.0363V5.80084e-07H19.0987V21.1924H13.3367Z" transform="translate(188.477 9.55078)" fill="white"/>
<path d="M5.32823 21.1924V5.59187H-7.11272e-06V5.80084e-07H16.6321V5.59187H11.3168V21.1924H5.32823Z" transform="translate(211.278 9.55078)" fill="white"/>
<path d="M-6.32241e-06 21.1924V5.80084e-07H10.5917C15.2337 5.80084e-07 17.7133 3.30397 17.7133 7.27841C17.7133 11.2529 15.2143 14.5223 10.5917 14.5223H6.008V21.1924H-6.32241e-06ZM11.6535 7.27841C11.6535 6.13101 10.8507 5.59187 9.84071 5.59187H6.03391V8.9304H9.84071C10.8507 8.9304 11.6405 8.39126 11.6405 7.27841H11.6535Z" transform="translate(237.642 9.55078)" fill="white"/>
<path d="M15.3891 21.1924L14.6575 18.711H7.53591L6.82375 21.1924H-9.48362e-06L7.32227 5.80084e-07H14.8776L22.1999 21.1924H15.3891ZM11.1032 6.28999L9.16093 13.1191H13.0907L11.1032 6.28999Z" transform="translate(255.2 9.55078)" fill="white"/>
<path d="M7.4388 21.1924V12.7735L7.90301e-06 5.80084e-07H6.75254L10.4493 7.17473L14.0813 0.0276482H20.8338L13.4662 12.7735V21.1924H7.4388Z" transform="translate(275.167 9.55078)" fill="white"/>
</g>
<defs>
<filter id="filter0_d" x="0.0899405" y="0.54497" width="296.82" height="43.8201" filterUnits="userSpaceOnUse" color-interpolation-filters="sRGB">
<feFlood flood-opacity="0" result="BackgroundImageFix"/>
<feColorMatrix in="SourceAlpha" type="matrix" values="0 0 0 0 0 0 0 0 0 0 0 0 0 0 0 0 0 0 255 0"/>
<feOffset dy="0.45503"/>
<feGaussianBlur stdDeviation="0.45503"/>
<feColorMatrix type="matrix" values="0 0 0 0 0.207843 0 0 0 0 0.25098 0 0 0 0 0.321569 0 0 0 0.2 0"/>
<feBlend mode="normal" in2="BackgroundImageFix" result="effect1_dropShadow"/>
<feBlend mode="normal" in="SourceGraphic" in2="effect1_dropShadow" result="shape"/>
</filter>
</defs>
</svg>
